<?xml version="1.0" encoding="utf-8"?>
<!-- Generator: Adobe Illustrator 18.1.0, SVG Export Plug-In . SVG Version: 6.00 Build 0)  -->
<!DOCTYPE svg PUBLIC "-//W3C//DTD SVG 1.1 Basic//EN" "http://www.w3.org/Graphics/SVG/1.1/DTD/svg11-basic.dtd">
<svg version="1.1" baseProfile="basic" xmlns="http://www.w3.org/2000/svg" xmlns:xlink="http://www.w3.org/1999/xlink" x="0px"
	 y="0px" viewBox="0 0 240 250" xml:space="preserve">
<g id="Layer_1" display="none">
	<g display="inline">
		<polygon fill="#802528" points="0.8,158.6 120.5,125.1 0.8,91.5 		"/>
		<path fill="#FFFFFF" d="M0,159.6V90.5l123.4,34.5L0,159.6z M1.6,92.6v65l116-32.5L1.6,92.6z"/>
	</g>
	<g display="inline">
		<polygon fill="#BB9D13" points="43.4,222.4 120.5,125.1 3.9,168.1 		"/>
		<path fill="#FFFFFF" d="M43.4,223.7L2.6,167.7l120.2-44.4L43.4,223.7z M5.1,168.5l38.3,52.6l74.7-94.3L5.1,168.5z"/>
	</g>
	<g display="inline">
		<polygon fill="#BB9D13" points="51.5,228.3 115.4,249 120.5,125.1 		"/>
		<path fill="#FFFFFF" d="M116.2,250.1l-65.9-21.4l71.1-106.4L116.2,250.1z M52.7,227.8l61.9,20.1l4.9-120.1L52.7,227.8z"/>
	</g>
	<g display="inline">
		<polygon fill="#412020" points="125.5,249 189.4,228.3 120.5,125.1 		"/>
		<path fill="#FFFFFF" d="M124.7,250.1l-5.2-127.8l71,106.4L124.7,250.1z M121.4,127.8l4.9,120.1l61.9-20.1L121.4,127.8z"/>
	</g>
	<g display="inline">
		<polygon fill="#412020" points="237.1,168.2 120.5,125.1 197.5,222.4 		"/>
		<path fill="#FFFFFF" d="M197.6,223.7l-79.4-100.3l120.2,44.4L197.6,223.7z M122.8,126.8l74.7,94.3l38.3-52.6L122.8,126.8z"/>
	</g>
	<g display="inline">
		<polygon fill="#A22A2E" points="120.5,125.1 239.2,159.6 239.2,92.6 		"/>
		<path fill="#FFFFFF" d="M240,160.7L117.6,125L240,91.5L240,160.7z M123.4,125.1l115,33.5l0-65L123.4,125.1z"/>
	</g>
	<g display="inline">
		<polygon fill="#A22A2E" points="196.6,28.8 120.5,125.1 236.1,83 		"/>
		<path fill="#FFFFFF" d="M118.2,126.7l78.5-99.3l40.7,55.9L118.2,126.7z M196.6,30.1l-73.8,93.3l112.1-40.7L196.6,30.1z"/>
	</g>
	<g display="inline">
		<polygon fill="#B4A87D" points="125.6,1.1 120.5,125.1 189.5,21.9 		"/>
		<path fill="#FFFFFF" d="M119.6,127.8l5.3-127.8l65.9,21.4L119.6,127.8z M126.3,2.2l-4.9,120.1l66.9-100L126.3,2.2z"/>
	</g>
	<g display="inline">
		<polygon fill="#B4A87D" points="51.6,21.8 120.5,125.1 115.5,1.1 		"/>
		<path fill="#FFFFFF" d="M121.4,127.8l-71-106.4l65.9-21.3L121.4,127.8z M52.8,22.2l66.8,100.1L114.8,2.2L52.8,22.2z"/>
	</g>
	<g display="inline">
		<polygon fill="#802528" points="3.9,81.9 120.5,125.1 43.5,27.7 		"/>
		<path fill="#FFFFFF" d="M122.8,126.8L2.7,82.3l40.8-55.9L122.8,126.8z M5.2,81.5l113,41.8L43.5,29L5.2,81.5z"/>
	</g>
</g>
<g id="Layer_2">
	<g opacity="0.2">
		<g>
			<polygon fill="#D6CEB6" points="2,159 121.7,125.4 2,91.8 			"/>
			<path fill="#FFFFFF" d="M1.2,160V90.7l123.4,34.6L1.2,160z M2.8,92.8v65.1l116-32.6L2.8,92.8z"/>
		</g>
		<g>
			<polygon fill="#D6CEB6" points="44.6,222.9 121.7,125.4 5.1,168.5 			"/>
			<path fill="#FFFFFF" d="M44.6,224.2l-40.7-56l120.2-44.5L44.6,224.2z M6.4,168.9l38.3,52.7l74.7-94.5L6.4,168.9z"/>
		</g>
		<g>
			<polygon fill="#D6CEB6" points="52.7,228.8 116.7,249.6 121.7,125.4 			"/>
			<path fill="#FFFFFF" d="M117.4,250.6l-65.9-21.4l71.1-106.6L117.4,250.6z M54,228.4l61.9,20.1l4.9-120.4L54,228.4z"/>
		</g>
		<g>
			<polygon fill="#D6CEB6" points="126.7,249.6 190.6,228.8 121.7,125.4 			"/>
			<path fill="#FFFFFF" d="M126,250.6l0-1l-5.1-127l71,106.7L126,250.6z M122.6,128.1l4.8,120.4l62-20.1L122.6,128.1z"/>
		</g>
		<g>
			<polygon fill="#D6CEB6" points="238.3,168.6 121.7,125.4 198.8,222.9 			"/>
			<path fill="#FFFFFF" d="M198.8,224.2l-79.4-100.6l120.2,44.5L198.8,224.2z M124.1,127.1l74.7,94.6l38.3-52.7L124.1,127.1z"/>
		</g>
		<g>
			<polygon fill="#D6CEB6" points="121.7,125.4 240.4,160 240.4,92.8 			"/>
			<path fill="#FFFFFF" d="M241.2,161l-122.4-35.7l122.4-33.6L241.2,161z M124.6,125.4l115,33.6l0-65.1L124.6,125.4z"/>
		</g>
		<g>
			<polygon fill="#D6CEB6" points="197.9,28.8 121.7,125.4 237.3,83.2 			"/>
			<path fill="#FFFFFF" d="M119.4,127l78.5-99.5l40.7,56.1l-1,0.4L119.4,127z M197.8,30.1L124,123.7l112.1-40.8L197.8,30.1z"/>
		</g>
		<g>
			<polygon fill="#B4A87D" points="126.8,1.1 121.7,125.4 190.7,21.9 			"/>
			<path fill="#FFFFFF" d="M120.8,128.1l5.3-128l65.9,21.4L120.8,128.1z M127.6,2.2l-4.9,120.4l66.9-100.2L127.6,2.2z"/>
		</g>
		<g>
			<polygon fill="#B4A87D" points="52.8,21.8 121.7,125.4 116.8,1.1 			"/>
			<path fill="#FFFFFF" d="M122.6,128.1l-71-106.7l65.9-21.4L122.6,128.1z M54.1,22.3l66.8,100.3L116,2.2L54.1,22.3z"/>
		</g>
		<g>
			<polygon fill="#D6CEB6" points="5.2,82.1 121.7,125.4 44.7,27.8 			"/>
			<path fill="#FFFFFF" d="M124.1,127.1L3.9,82.5l40.8-56L124.1,127.1z M6.4,81.7l113,41.9L44.7,29L6.4,81.7z"/>
		</g>
	</g>
</g>
</svg>
