<?xml version="1.0" encoding="utf-8"?>
<!-- Generator: Adobe Illustrator 18.1.0, SVG Export Plug-In . SVG Version: 6.00 Build 0)  -->
<!DOCTYPE svg PUBLIC "-//W3C//DTD SVG 1.1 Basic//EN" "http://www.w3.org/Graphics/SVG/1.1/DTD/svg11-basic.dtd">
<svg version="1.1" baseProfile="basic" id="Layer_1"
	 xmlns="http://www.w3.org/2000/svg" xmlns:xlink="http://www.w3.org/1999/xlink" x="0px" y="0px" viewBox="0 0 250 100.1"
	 xml:space="preserve">
<g>
	<rect y="1.7" fill="#FFFFFF" width="16" height="59"/>
	<path fill="#FFFFFF" d="M97.1,52.4c2.3-2.6,4-5.7,5.1-9.3c1.1-3.6,1.7-7.6,1.7-12.1c0-4.4-0.6-8.5-1.7-12.1
		c-1.1-3.6-2.8-6.7-5.2-9.3c-2.3-2.6-5.3-4.5-9-5.9c-3.6-1.4-8-2.1-13-2.1H38v59h38.4c4.6,0,8.6-0.8,12-2.2
		C91.9,57.1,94.8,54.9,97.1,52.4z M83.8,44.8c-2.4,3.1-6.3,4.9-11.6,4.9H54v-37h16.7c3,0,5.6,0.5,7.7,1.3c2.1,0.8,3.9,2,5.2,3.5
		c1.3,1.5,2.3,3.4,2.9,5.6c0.6,2.2,0.9,4.8,0.9,7.5C87.4,36.9,86.2,41.7,83.8,44.8z"/>
	<path fill="#FFFFFF" d="M162,58.9c2.8-1.1,4.9-2.6,6.5-4.3c1.6-1.7,2.6-3.7,3.2-5.8c0.6-2.1,0.9-4.1,0.9-6.1c0-1.5-0.2-3.1-0.7-4.7
		c-0.4-1.6-1.1-3.1-2-4.4c-0.9-1.3-2-2.4-3.3-3.4c-1.3-0.9-2.6-1.5-4.6-1.8v-0.2c1-0.4,2.6-1.1,3.6-1.9c1-0.8,1.8-1.8,2.5-2.9
		c0.6-1.1,1.1-2.2,1.4-3.4c0.3-1.2,0.5-2.4,0.5-3.5c0-2.7-0.5-5-1.4-6.9c-0.9-1.9-2.1-3.4-3.7-4.6c-1.5-1.2-3.3-2-5.3-2.5
		c-2-0.5-4.1-0.8-6.2-0.8H109v59h42.2C155.6,60.7,159.2,60,162,58.9z M125,12.7h20.3c3.3,0,5.5,0.4,6.6,1.6c1.1,1.2,1.6,2.6,1.6,4.5
		c0,2.2-0.5,3.6-1.6,4.6c-1.1,1-2.5,1.3-4.4,1.3H125V12.7z M125,49.7v-14h22.2c5.6,0,8.5,2.1,8.5,6.9c0,1.9-0.5,3.6-1.6,5
		c-1,1.4-2.8,2.2-5.3,2.2H125z"/>
	<path fill="#FFFFFF" d="M213.8,62.1c5.3,0,9.8-0.5,13.6-1.4c3.8-1,7.1-2.3,9.8-3.9c2.7-1.6,4.9-3.5,6.6-5.6c1.7-2.1,3-4.3,4-6.6
		c1-2.3,1.6-4.6,1.9-6.9c0.3-2.3,0.5-4.5,0.5-6.6c0-2-0.2-4.2-0.5-6.5c-0.3-2.3-1-4.6-1.9-7c-1-2.3-2.3-4.5-4-6.6
		c-1.7-2.1-3.9-4-6.6-5.6c-2.7-1.6-6-2.9-9.8-3.9c-3.8-1-8.4-1.4-13.6-1.4c-5.3,0-9.8,0.5-13.6,1.4c-3.8,1-7.1,2.3-9.8,3.9
		c-2.7,1.6-4.9,3.5-6.6,5.6c-1.7,2.1-3,4.3-4,6.6c-1,2.3-1.6,4.6-1.9,7c-0.3,2.3-0.5,4.5-0.5,6.5c0,2,0.2,4.2,0.5,6.6
		c0.3,2.3,1,4.6,1.9,6.9c1,2.3,2.3,4.5,4,6.6c1.7,2.1,3.9,4,6.6,5.6c2.7,1.6,6,2.9,9.8,3.9C204,61.6,208.5,62.1,213.8,62.1z
		 M198.6,44.4c-1.5-1.9-2.6-4-3.3-6.4c-0.7-2.3-1-4.7-1-7s0.3-4.6,1-7c0.7-2.3,1.8-4.5,3.3-6.4c1.5-1.9,3.5-3.5,6-4.7
		c2.5-1.2,5.5-1.8,9.2-1.8c3.6,0,6.7,0.6,9.2,1.8c2.5,1.2,4.5,2.8,6,4.7c1.5,1.9,2.6,4,3.3,6.4c0.7,2.3,1,4.6,1,7s-0.3,4.6-1,7
		c-0.7,2.3-1.8,4.5-3.3,6.4c-1.5,1.9-3.5,3.5-6,4.7c-2.5,1.2-5.5,1.8-9.2,1.8c-3.6,0-6.7-0.6-9.2-1.8
		C202.1,47.9,200.1,46.3,198.6,44.4z"/>
	<rect x="22" y="25.7" fill="#FFFFFF" width="11" height="11"/>
	<path fill="#FFFFFF" d="M10.1,73c-1.1,0.4-2,1-2.8,1.6c-0.8,0.7-1.4,1.2-1.9,2c-0.5,0.8-0.9,2.2-1.3,2.2H4v-6H0.3l0,27H4l0-13.5
		c0-1.8,0.3-3.5,0.8-4.8C5.3,80.1,6,79,6.9,78.3c0.9-0.8,1.8-1.3,2.9-1.7c1.1-0.3,2-0.5,3-0.5c1.1,0,2.3,0.1,3.3,0.3v-3.8
		c0-0.1-1.1-0.2-2.1-0.2C12.4,72.3,11.2,72.5,10.1,73z"/>
	<path fill="#FFFFFF" d="M45.5,79.6c-0.9-1.9-2.1-3.3-3.5-4.4c-1.4-1.1-3-1.8-4.7-2.3c-1.7-0.4-3.4-0.6-5.1-0.6
		c-2.4,0-4.6,0.4-6.3,1.1c-1.8,0.8-3.2,1.8-4.4,3.1c-1.2,1.3-2,2.8-2.6,4.5c-0.6,1.7-0.9,3.4-0.9,5.2c0,1.6,0.2,3.2,0.7,4.9
		c0.5,1.6,1.3,3.1,2.4,4.5c1.1,1.3,2.6,2.4,4.4,3.3c1.8,0.9,4,1.3,6.7,1.3c2.1,0,4-0.3,5.6-0.8c1.6-0.5,3-1.2,4.1-2.1
		c1.1-0.9,2-2,2.7-3c0.7-1.1,1.2-2.5,1.6-3.5h-3.7c-0.7,2-1.8,3.6-3.3,4.7c-1.6,1-3.9,1.6-7,1.6c-1.7,0-3.2-0.2-4.4-0.7
		c-1.3-0.5-2.4-1.2-3.3-2.1c-0.9-0.9-1.6-2.1-2.1-3.3c-0.5-1.2-0.7-2.1-0.7-4.1h25.2C46.8,83.7,46.4,81.5,45.5,79.6z M21.6,84.7
		c0.2-2,0.7-3.2,1.4-4.3c0.7-1.1,1.5-2.1,2.5-2.8c1-0.7,2.1-1.3,3.3-1.6c1.2-0.3,2.4-0.5,3.6-0.5c1.2,0,2.4,0.1,3.6,0.5
		c1.2,0.3,2.2,0.8,3.2,1.5c1,0.7,1.8,1.8,2.5,2.9c0.7,1.1,1.2,2.3,1.4,4.3H21.6z"/>
	<path fill="#FFFFFF" d="M72.6,86.5c-0.9-0.6-2.1-1-3.5-1.4c-1.4-0.3-3.1-0.6-5.1-0.9c-2-0.3-3.6-0.5-4.8-0.8
		c-1.3-0.2-2.2-0.5-3-0.8c-0.7-0.3-1.2-0.7-1.5-1.1c-0.3-0.4-0.4-1-0.4-1.7c0-0.9,0.2-1.7,0.6-2.2c0.4-0.6,1-1,1.7-1.4
		c0.7-0.3,1.5-0.5,2.4-0.7c0.9-0.1,1.8-0.2,2.8-0.2c2.7,0,4.8,0.3,6.2,1c1.4,0.7,2.3,2.2,2.8,4.2h3.4c-0.2-3-1.3-4.8-3.2-6.2
		c-1.9-1.5-5-2.2-9.2-2.2c-1.9,0-3.6,0.2-5,0.6c-1.4,0.4-2.6,0.9-3.5,1.6c-0.9,0.7-1.6,1.5-2.1,2.4c-0.5,0.9-0.7,2-0.7,3.1
		c0,1.2,0.2,2.2,0.6,3c0.4,0.8,1,1.5,1.9,2.1c0.9,0.6,2,1.1,3.4,1.4c1.4,0.3,3.1,0.6,5.1,0.8c2,0.2,3.7,0.4,5,0.7
		c1.3,0.3,2.3,0.6,3,0.9c0.7,0.3,1.2,0.8,1.5,1.3c0.3,0.5,0.4,1,0.4,1.7c0,1-0.2,1.8-0.6,2.4c-0.4,0.7-1,1.2-1.8,1.5
		c-0.8,0.4-1.7,0.6-2.7,0.8c-1.1,0.1-2.2,0.2-3.5,0.2c-1.7,0-3.1-0.1-4.3-0.3c-1.2-0.2-2.1-0.5-2.9-1c-0.8-0.5-1.3-1.3-1.8-2
		c-0.4-0.7-0.7-1-0.9-3h-3.4c0,4,1.2,5.6,3.5,7.1c2.3,1.4,5.6,2.2,9.7,2.2c4.1,0,7.3-0.7,9.3-2.1c2.1-1.5,3.1-3.5,3.1-6.1
		c0-1.3-0.2-2.3-0.7-3.2C74.1,87.8,73.5,87.1,72.6,86.5z"/>
	<path fill="#FFFFFF" d="M104.3,76.5c-1.2-1.3-2.8-2.3-4.6-3.1c-1.9-0.8-4-1.1-6.5-1.1c-2.5,0-4.7,0.4-6.6,1.1
		c-1.9,0.8-3.4,1.8-4.6,3.1c-1.2,1.3-2.1,2.8-2.7,4.5c-0.6,1.7-0.9,3.4-0.9,5.2c0,1.8,0.3,3.6,0.9,5.2c0.6,1.7,1.5,3.2,2.7,4.5
		c1.2,1.3,2.8,2.3,4.6,3.1c1.9,0.8,4,1.1,6.6,1.1c2.5,0,4.7-0.4,6.5-1.1c1.9-0.8,3.4-1.8,4.6-3.1c1.2-1.3,2.1-2.8,2.7-4.5
		c0.6-1.7,0.9-3.4,0.9-5.2c0-1.8-0.3-3.6-0.9-5.2C106.5,79.3,105.5,77.8,104.3,76.5z M103.5,90.6c-0.5,1.3-1.2,2.4-2.2,3.4
		c-0.9,1-2.1,1.7-3.5,2.2c-1.4,0.5-3,0.8-4.7,0.8c-1.8,0-3.3-0.3-4.7-0.8c-1.4-0.5-2.5-1.3-3.5-2.2c-0.9-1-1.7-2.1-2.2-3.4
		c-0.5-1.3-0.8-2.8-0.8-4.3c0-1.5,0.3-3,0.8-4.3c0.5-1.3,1.2-2.5,2.2-3.4c0.9-1,2.1-1.7,3.5-2.2c1.4-0.5,2.9-0.8,4.7-0.8
		c1.7,0,3.3,0.3,4.7,0.8c1.4,0.5,2.6,1.3,3.5,2.2c0.9,1,1.7,2.1,2.2,3.4c0.5,1.3,0.8,2.8,0.8,4.3C104.2,87.8,104,89.2,103.5,90.6z"
		/>
	<path fill="#FFFFFF" d="M135,72.7v14.6c0,3-0.9,5.4-2.6,7.1c-1.7,1.7-4.4,2.6-8,2.6c-1.2,0-2.3-0.1-3.3-0.4c-1-0.2-1.8-0.6-2.5-1.2
		c-0.7-0.6-1.5-1.3-1.8-2.2c-0.4-0.9-0.8-2-0.8-3.3V72.7h-3v16.6c0,1.6,0.1,3,0.4,4.3c0.4,1.3,0.9,2.4,1.8,3.4c0.9,1,2,1.7,3.4,2.2
		c1.4,0.5,3.2,0.8,5.4,0.8c1.4,0,2.8-0.2,4-0.5c1.2-0.3,2.3-0.8,3.2-1.4c0.9-0.6,1.7-1.4,2.3-2.2c0.6-0.7,1.1-1.4,1.3-2.4h0.1l0,6
		h3.7l-0.1-27H135z"/>
	<path fill="#FFFFFF" d="M154.2,73c-1.1,0.4-2,1-2.8,1.6c-0.8,0.7-1.4,1.2-1.9,2c-0.5,0.8-0.9,2.2-1.3,2.2H148v-6h-3.6l0,27h3.7
		l-0.1-13.5c0-1.8,0.3-3.5,0.8-4.8c0.6-1.3,1.3-2.3,2.1-3.1c0.9-0.8,1.8-1.3,2.9-1.7c1.1-0.3,1.9-0.5,2.9-0.5c1.1,0,2.2,0.1,3.2,0.3
		v-3.8c0-0.1-1-0.2-2-0.2C156.5,72.3,155.3,72.5,154.2,73z"/>
	<path fill="#FFFFFF" d="M182.8,94.9c-1.6,1.3-3.7,2.1-6.5,2.1c-3.5,0-6.3-1-8.2-2.9c-1.9-2-2.8-4.6-2.8-7.8c0-1.5,0.2-2.9,0.7-4.2
		c0.5-1.3,1.1-2.4,2-3.4c0.9-1,2-1.7,3.4-2.3c1.4-0.6,3-0.8,4.9-0.8c2.3,0,4.3,0.5,5.9,1.4c1.7,1,2.8,2.8,3.3,4.8h3.7
		c-0.2-1-0.5-2-1.1-3c-0.5-1.1-1.3-2.1-2.3-3c-1-0.9-2.3-1.7-3.9-2.3c-1.6-0.6-3.5-0.9-5.7-0.9c-2.5,0-4.6,0.4-6.5,1.1
		c-1.8,0.7-3.4,1.7-4.6,2.9c-1.2,1.3-2.1,2.7-2.7,4.4c-0.6,1.7-0.9,3.5-0.9,5.5c0,2.1,0.3,4,1,5.7c0.7,1.7,1.6,3.2,2.8,4.4
		c1.2,1.2,2.8,2.2,4.6,2.8c1.8,0.7,3.9,1,6.3,1c2.3,0,4.3-0.4,5.9-1.1c1.6-0.7,2.9-1.6,4-2.7c1-1.1,1.8-2.3,2.3-3.4
		c0.5-1.2,0.8-2.2,1-3.2h-3.7C185.3,91.7,184.3,93.6,182.8,94.9z"/>
	<path fill="#FFFFFF" d="M220.3,79.6c-0.9-1.9-2.1-3.3-3.5-4.4c-1.4-1.1-3-1.8-4.7-2.3c-1.7-0.4-3.4-0.6-5.1-0.6
		c-2.4,0-4.6,0.4-6.3,1.1c-1.8,0.8-3.2,1.8-4.4,3.1c-1.2,1.3-2,2.8-2.6,4.5c-0.6,1.7-0.9,3.4-0.9,5.2c0,1.6,0.2,3.2,0.7,4.9
		c0.5,1.6,1.3,3.1,2.4,4.5c1.1,1.3,2.6,2.4,4.4,3.3c1.8,0.9,4,1.3,6.7,1.3c2.1,0,4-0.3,5.6-0.8c1.6-0.5,3-1.2,4.1-2.1
		c1.1-0.9,2-2,2.7-3c0.7-1.1,1.2-2.5,1.6-3.5h-3.7c-0.7,2-1.8,3.6-3.3,4.7c-1.6,1-3.9,1.6-7,1.6c-1.7,0-3.2-0.2-4.4-0.7
		c-1.3-0.5-2.4-1.2-3.3-2.1c-0.9-0.9-1.6-2.1-2.1-3.3c-0.5-1.2-0.7-2.1-0.7-4.1h25.2C221.6,83.7,221.2,81.5,220.3,79.6z M196.5,84.7
		c0.2-2,0.7-3.2,1.4-4.3c0.7-1.1,1.5-2.1,2.5-2.8c1-0.7,2.1-1.3,3.3-1.6c1.2-0.3,2.4-0.5,3.6-0.5c1.2,0,2.4,0.1,3.6,0.5
		c1.2,0.3,2.2,0.8,3.2,1.5c1,0.7,1.8,1.8,2.5,2.9c0.7,1.1,1.2,2.3,1.4,4.3H196.5z"/>
	<path fill="#FFFFFF" d="M247.4,86.5c-0.9-0.6-2.1-1-3.5-1.4c-1.4-0.3-3.1-0.6-5.1-0.9c-2-0.3-3.6-0.5-4.8-0.8
		c-1.3-0.2-2.2-0.5-3-0.8c-0.7-0.3-1.2-0.7-1.5-1.1c-0.3-0.4-0.4-1-0.4-1.7c0-0.9,0.2-1.7,0.6-2.2c0.4-0.6,1-1,1.7-1.4
		c0.7-0.3,1.5-0.5,2.4-0.7c0.9-0.1,1.8-0.2,2.8-0.2c2.7,0,4.8,0.3,6.2,1c1.4,0.7,2.3,2.2,2.8,4.2h3.4c-0.2-3-1.3-4.8-3.2-6.2
		c-1.9-1.5-5-2.2-9.2-2.2c-1.9,0-3.6,0.2-5,0.6c-1.4,0.4-2.6,0.9-3.5,1.6c-0.9,0.7-1.6,1.5-2.1,2.4c-0.5,0.9-0.7,2-0.7,3.1
		c0,1.2,0.2,2.2,0.6,3c0.4,0.8,1,1.5,1.9,2.1c0.9,0.6,2,1.1,3.4,1.4c1.4,0.3,3.1,0.6,5.1,0.8c2,0.2,3.7,0.4,5,0.7
		c1.3,0.3,2.3,0.6,3,0.9c0.7,0.3,1.2,0.8,1.5,1.3c0.3,0.5,0.4,1,0.4,1.7c0,1-0.2,1.8-0.6,2.4c-0.4,0.7-1,1.2-1.8,1.5
		c-0.8,0.4-1.7,0.6-2.7,0.8c-1.1,0.1-2.2,0.2-3.5,0.2c-1.7,0-3.1-0.1-4.3-0.3c-1.2-0.2-2.1-0.5-2.9-1c-0.8-0.5-1.3-1.3-1.8-2
		c-0.4-0.7-0.7-1-0.9-3h-3.4c0,4,1.2,5.6,3.5,7.1c2.3,1.4,5.6,2.2,9.7,2.2c4.1,0,7.3-0.7,9.3-2.1c2.1-1.5,3.1-3.5,3.1-6.1
		c0-1.3-0.2-2.3-0.7-3.2C249,87.8,248.3,87.1,247.4,86.5z"/>
</g>
</svg>
