<?xml version="1.0" encoding="utf-8"?>
<!-- Generator: Adobe Illustrator 18.1.0, SVG Export Plug-In . SVG Version: 6.00 Build 0)  -->
<!DOCTYPE svg PUBLIC "-//W3C//DTD SVG 1.1 Basic//EN" "http://www.w3.org/Graphics/SVG/1.1/DTD/svg11-basic.dtd">
<svg version="1.1" baseProfile="basic" xmlns="http://www.w3.org/2000/svg" xmlns:xlink="http://www.w3.org/1999/xlink" x="0px"
	 y="0px" viewBox="0 0 250 250" xml:space="preserve">
<g id="idbo" display="none">
	<g display="inline">
		<rect y="76.6" fill="#FFFFFF" width="16" height="59"/>
		<path fill="#FFFFFF" d="M97.1,127.3c2.3-2.6,4-5.7,5.1-9.3c1.1-3.6,1.7-7.6,1.7-12.1c0-4.4-0.6-8.5-1.7-12.1s-2.8-6.7-5.2-9.3
			c-2.3-2.6-5.3-4.5-9-5.9c-3.6-1.4-8-2.1-13-2.1H38v59h38.4c4.6,0,8.6-0.8,12-2.2C91.9,132,94.8,129.9,97.1,127.3z M83.8,119.8
			c-2.4,3.1-6.3,4.9-11.6,4.9H54v-37h16.7c3,0,5.6,0.5,7.7,1.3s3.9,2,5.2,3.5c1.3,1.5,2.3,3.4,2.9,5.6c0.6,2.2,0.9,4.8,0.9,7.5
			C87.4,111.8,86.2,116.6,83.8,119.8z"/>
		<path fill="#FFFFFF" d="M162,133.9c2.8-1.1,4.9-2.6,6.5-4.3c1.6-1.7,2.6-3.7,3.2-5.8c0.6-2.1,0.9-4.1,0.9-6.1
			c0-1.5-0.2-3.1-0.7-4.7c-0.4-1.6-1.1-3.1-2-4.4s-2-2.4-3.3-3.4c-1.3-0.9-2.6-1.5-4.6-1.8v-0.2c1-0.4,2.6-1.1,3.6-1.9
			s1.8-1.8,2.5-2.9c0.6-1.1,1.1-2.2,1.4-3.4c0.3-1.2,0.5-2.4,0.5-3.5c0-2.7-0.5-5-1.4-6.9c-0.9-1.9-2.1-3.4-3.7-4.6
			c-1.5-1.2-3.3-2-5.3-2.5s-4.1-0.8-6.2-0.8H109v59h42.2C155.6,135.6,159.2,134.9,162,133.9z M125,87.6h20.3c3.3,0,5.5,0.4,6.6,1.6
			c1.1,1.2,1.6,2.6,1.6,4.5c0,2.2-0.5,3.6-1.6,4.6s-2.5,1.3-4.4,1.3H125V87.6z M125,124.6v-14h22.2c5.6,0,8.5,2.1,8.5,6.9
			c0,1.9-0.5,3.6-1.6,5c-1,1.4-2.8,2.2-5.3,2.2H125V124.6z"/>
		<path fill="#FFFFFF" d="M213.8,137c5.3,0,9.8-0.5,13.6-1.4c3.8-1,7.1-2.3,9.8-3.9c2.7-1.6,4.9-3.5,6.6-5.6c1.7-2.1,3-4.3,4-6.6
			s1.6-4.6,1.9-6.9c0.3-2.3,0.5-4.5,0.5-6.6c0-2-0.2-4.2-0.5-6.5c-0.3-2.3-1-4.6-1.9-7c-1-2.3-2.3-4.5-4-6.6c-1.7-2.1-3.9-4-6.6-5.6
			c-2.7-1.6-6-2.9-9.8-3.9S219,75,213.8,75c-5.3,0-9.8,0.5-13.6,1.4c-3.8,1-7.1,2.3-9.8,3.9c-2.7,1.6-4.9,3.5-6.6,5.6
			c-1.7,2.1-3,4.3-4,6.6c-1,2.3-1.6,4.6-1.9,7c-0.3,2.3-0.5,4.5-0.5,6.5s0.2,4.2,0.5,6.6c0.3,2.3,1,4.6,1.9,6.9c1,2.3,2.3,4.5,4,6.6
			c1.7,2.1,3.9,4,6.6,5.6c2.7,1.6,6,2.9,9.8,3.9C204,136.5,208.5,137,213.8,137z M198.6,119.3c-1.5-1.9-2.6-4-3.3-6.4
			c-0.7-2.3-1-4.7-1-7s0.3-4.6,1-7c0.7-2.3,1.8-4.5,3.3-6.4s3.5-3.5,6-4.7c2.5-1.2,5.5-1.8,9.2-1.8c3.6,0,6.7,0.6,9.2,1.8
			c2.5,1.2,4.5,2.8,6,4.7s2.6,4,3.3,6.4c0.7,2.3,1,4.6,1,7s-0.3,4.6-1,7c-0.7,2.3-1.8,4.5-3.3,6.4s-3.5,3.5-6,4.7
			c-2.5,1.2-5.5,1.8-9.2,1.8c-3.6,0-6.7-0.6-9.2-1.8C202.1,122.8,200.1,121.2,198.6,119.3z"/>
		<rect x="22" y="100.6" fill="#FFFFFF" width="11" height="11"/>
		<path fill="#FFFFFF" d="M10.1,147.9c-1.1,0.4-2,1-2.8,1.6c-0.8,0.7-1.4,1.2-1.9,2c-0.5,0.8-0.9,2.2-1.3,2.2H4v-6H0.3v27H4v-13.5
			c0-1.8,0.3-3.5,0.8-4.8c0.5-1.4,1.2-2.5,2.1-3.2c0.9-0.8,1.8-1.3,2.9-1.7c1.1-0.3,2-0.5,3-0.5c1.1,0,2.3,0.1,3.3,0.3v-3.8
			c0-0.1-1.1-0.2-2.1-0.2C12.4,147.2,11.2,147.4,10.1,147.9z"/>
		<path fill="#FFFFFF" d="M45.5,154.5c-0.9-1.9-2.1-3.3-3.5-4.4s-3-1.8-4.7-2.3c-1.7-0.4-3.4-0.6-5.1-0.6c-2.4,0-4.6,0.4-6.3,1.1
			c-1.8,0.8-3.2,1.8-4.4,3.1c-1.2,1.3-2,2.8-2.6,4.5c-0.6,1.7-0.9,3.4-0.9,5.2c0,1.6,0.2,3.2,0.7,4.9c0.5,1.6,1.3,3.1,2.4,4.5
			c1.1,1.3,2.6,2.4,4.4,3.3s4,1.3,6.7,1.3c2.1,0,4-0.3,5.6-0.8s3-1.2,4.1-2.1c1.1-0.9,2-2,2.7-3c0.7-1.1,1.2-2.5,1.6-3.5h-3.7
			c-0.7,2-1.8,3.6-3.3,4.7c-1.6,1-3.9,1.6-7,1.6c-1.7,0-3.2-0.2-4.4-0.7c-1.3-0.5-2.4-1.2-3.3-2.1c-0.9-0.9-1.6-2.1-2.1-3.3
			c-0.5-1.2-0.7-2.1-0.7-4.1h25.2C46.8,158.6,46.4,156.4,45.5,154.5z M21.6,159.6c0.2-2,0.7-3.2,1.4-4.3c0.7-1.1,1.5-2.1,2.5-2.8
			c1-0.7,2.1-1.3,3.3-1.6c1.2-0.3,2.4-0.5,3.6-0.5c1.2,0,2.4,0.1,3.6,0.5c1.2,0.3,2.2,0.8,3.2,1.5c1,0.7,1.8,1.8,2.5,2.9
			s1.2,2.3,1.4,4.3H21.6z"/>
		<path fill="#FFFFFF" d="M72.6,161.4c-0.9-0.6-2.1-1-3.5-1.4c-1.4-0.3-3.1-0.6-5.1-0.9s-3.6-0.5-4.8-0.8c-1.3-0.2-2.2-0.5-3-0.8
			c-0.7-0.3-1.2-0.7-1.5-1.1c-0.3-0.4-0.4-1-0.4-1.7c0-0.9,0.2-1.7,0.6-2.2c0.4-0.6,1-1,1.7-1.4c0.7-0.3,1.5-0.5,2.4-0.7
			c0.9-0.1,1.8-0.2,2.8-0.2c2.7,0,4.8,0.3,6.2,1s2.3,2.2,2.8,4.2h3.4c-0.2-3-1.3-4.8-3.2-6.2c-1.9-1.5-5-2.2-9.2-2.2
			c-1.9,0-3.6,0.2-5,0.6c-1.4,0.4-2.6,0.9-3.5,1.6s-1.6,1.5-2.1,2.4c-0.5,0.9-0.7,2-0.7,3.1c0,1.2,0.2,2.2,0.6,3
			c0.4,0.8,1,1.5,1.9,2.1c0.9,0.6,2,1.1,3.4,1.4s3.1,0.6,5.1,0.8s3.7,0.4,5,0.7c1.3,0.3,2.3,0.6,3,0.9c0.7,0.3,1.2,0.8,1.5,1.3
			s0.4,1,0.4,1.7c0,1-0.2,1.8-0.6,2.4c-0.4,0.7-1,1.2-1.8,1.5c-0.8,0.4-1.7,0.6-2.7,0.8c-1.1,0.1-2.2,0.2-3.5,0.2
			c-1.7,0-3.1-0.1-4.3-0.3c-1.2-0.2-2.1-0.5-2.9-1c-0.8-0.5-1.3-1.3-1.8-2c-0.4-0.7-0.7-1-0.9-3h-3.4c0,4,1.2,5.6,3.5,7.1
			c2.3,1.4,5.6,2.2,9.7,2.2s7.3-0.7,9.3-2.1c2.1-1.5,3.1-3.5,3.1-6.1c0-1.3-0.2-2.3-0.7-3.2C74.1,162.8,73.5,162,72.6,161.4z"/>
		<path fill="#FFFFFF" d="M104.3,151.4c-1.2-1.3-2.8-2.3-4.6-3.1c-1.9-0.8-4-1.1-6.5-1.1s-4.7,0.4-6.6,1.1c-1.9,0.8-3.4,1.8-4.6,3.1
			s-2.1,2.8-2.7,4.5s-0.9,3.4-0.9,5.2c0,1.8,0.3,3.6,0.9,5.2c0.6,1.7,1.5,3.2,2.7,4.5s2.8,2.3,4.6,3.1c1.9,0.8,4,1.1,6.6,1.1
			c2.5,0,4.7-0.4,6.5-1.1c1.9-0.8,3.4-1.8,4.6-3.1s2.1-2.8,2.7-4.5s0.9-3.4,0.9-5.2c0-1.8-0.3-3.6-0.9-5.2
			C106.5,154.2,105.5,152.8,104.3,151.4z M103.5,165.5c-0.5,1.3-1.2,2.4-2.2,3.4c-0.9,1-2.1,1.7-3.5,2.2s-3,0.8-4.7,0.8
			c-1.8,0-3.3-0.3-4.7-0.8c-1.4-0.5-2.5-1.3-3.5-2.2c-0.9-1-1.7-2.1-2.2-3.4c-0.5-1.3-0.8-2.8-0.8-4.3s0.3-3,0.8-4.3
			c0.5-1.3,1.2-2.5,2.2-3.4c0.9-1,2.1-1.7,3.5-2.2s2.9-0.8,4.7-0.8c1.7,0,3.3,0.3,4.7,0.8c1.4,0.5,2.6,1.3,3.5,2.2
			c0.9,1,1.7,2.1,2.2,3.4c0.5,1.3,0.8,2.8,0.8,4.3C104.2,162.8,104,164.1,103.5,165.5z"/>
		<path fill="#FFFFFF" d="M135,147.6v14.6c0,3-0.9,5.4-2.6,7.1c-1.7,1.7-4.4,2.6-8,2.6c-1.2,0-2.3-0.1-3.3-0.4
			c-1-0.2-1.8-0.6-2.5-1.2s-1.5-1.3-1.8-2.2c-0.4-0.9-0.8-2-0.8-3.3v-17.2h-3v16.6c0,1.6,0.1,3,0.4,4.3c0.4,1.3,0.9,2.4,1.8,3.4
			s2,1.7,3.4,2.2s3.2,0.8,5.4,0.8c1.4,0,2.8-0.2,4-0.5c1.2-0.3,2.3-0.8,3.2-1.4c0.9-0.6,1.7-1.4,2.3-2.2c0.6-0.7,1.1-1.4,1.3-2.4
			h0.1v6h3.7l-0.1-27H135V147.6z"/>
		<path fill="#FFFFFF" d="M154.2,147.9c-1.1,0.4-2,1-2.8,1.6c-0.8,0.7-1.4,1.2-1.9,2c-0.5,0.8-0.9,2.2-1.3,2.2H148v-6h-3.6v27h3.7
			l-0.1-13.5c0-1.8,0.3-3.5,0.8-4.8c0.6-1.3,1.3-2.3,2.1-3.1c0.9-0.8,1.8-1.3,2.9-1.7c1.1-0.3,1.9-0.5,2.9-0.5
			c1.1,0,2.2,0.1,3.2,0.3v-3.8c0-0.1-1-0.2-2-0.2C156.5,147.2,155.3,147.4,154.2,147.9z"/>
		<path fill="#FFFFFF" d="M182.8,169.9c-1.6,1.3-3.7,2.1-6.5,2.1c-3.5,0-6.3-1-8.2-2.9c-1.9-2-2.8-4.6-2.8-7.8
			c0-1.5,0.2-2.9,0.7-4.2c0.5-1.3,1.1-2.4,2-3.4s2-1.7,3.4-2.3c1.4-0.6,3-0.8,4.9-0.8c2.3,0,4.3,0.5,5.9,1.4c1.7,1,2.8,2.8,3.3,4.8
			h3.7c-0.2-1-0.5-2-1.1-3c-0.5-1.1-1.3-2.1-2.3-3c-1-0.9-2.3-1.7-3.9-2.3c-1.6-0.6-3.5-0.9-5.7-0.9c-2.5,0-4.6,0.4-6.5,1.1
			c-1.8,0.7-3.4,1.7-4.6,2.9c-1.2,1.3-2.1,2.7-2.7,4.4c-0.6,1.7-0.9,3.5-0.9,5.5c0,2.1,0.3,4,1,5.7c0.7,1.7,1.6,3.2,2.8,4.4
			c1.2,1.2,2.8,2.2,4.6,2.8c1.8,0.7,3.9,1,6.3,1c2.3,0,4.3-0.4,5.9-1.1c1.6-0.7,2.9-1.6,4-2.7c1-1.1,1.8-2.3,2.3-3.4
			c0.5-1.2,0.8-2.2,1-3.2h-3.7C185.3,166.6,184.3,168.5,182.8,169.9z"/>
		<path fill="#FFFFFF" d="M220.3,154.5c-0.9-1.9-2.1-3.3-3.5-4.4s-3-1.8-4.7-2.3c-1.7-0.4-3.4-0.6-5.1-0.6c-2.4,0-4.6,0.4-6.3,1.1
			c-1.8,0.8-3.2,1.8-4.4,3.1c-1.2,1.3-2,2.8-2.6,4.5c-0.6,1.7-0.9,3.4-0.9,5.2c0,1.6,0.2,3.2,0.7,4.9c0.5,1.6,1.3,3.1,2.4,4.5
			c1.1,1.3,2.6,2.4,4.4,3.3c1.8,0.9,4,1.3,6.7,1.3c2.1,0,4-0.3,5.6-0.8s3-1.2,4.1-2.1c1.1-0.9,2-2,2.7-3c0.7-1.1,1.2-2.5,1.6-3.5
			h-3.7c-0.7,2-1.8,3.6-3.3,4.7c-1.6,1-3.9,1.6-7,1.6c-1.7,0-3.2-0.2-4.4-0.7c-1.3-0.5-2.4-1.2-3.3-2.1c-0.9-0.9-1.6-2.1-2.1-3.3
			c-0.5-1.2-0.7-2.1-0.7-4.1h25.2C221.6,158.6,221.2,156.4,220.3,154.5z M196.5,159.6c0.2-2,0.7-3.2,1.4-4.3
			c0.7-1.1,1.5-2.1,2.5-2.8c1-0.7,2.1-1.3,3.3-1.6c1.2-0.3,2.4-0.5,3.6-0.5c1.2,0,2.4,0.1,3.6,0.5c1.2,0.3,2.2,0.8,3.2,1.5
			c1,0.7,1.8,1.8,2.5,2.9s1.2,2.3,1.4,4.3H196.5z"/>
		<path fill="#FFFFFF" d="M247.4,161.4c-0.9-0.6-2.1-1-3.5-1.4c-1.4-0.3-3.1-0.6-5.1-0.9s-3.6-0.5-4.8-0.8c-1.3-0.2-2.2-0.5-3-0.8
			c-0.7-0.3-1.2-0.7-1.5-1.1c-0.3-0.4-0.4-1-0.4-1.7c0-0.9,0.2-1.7,0.6-2.2c0.4-0.6,1-1,1.7-1.4c0.7-0.3,1.5-0.5,2.4-0.7
			c0.9-0.1,1.8-0.2,2.8-0.2c2.7,0,4.8,0.3,6.2,1s2.3,2.2,2.8,4.2h3.4c-0.2-3-1.3-4.8-3.2-6.2c-1.9-1.5-5-2.2-9.2-2.2
			c-1.9,0-3.6,0.2-5,0.6c-1.4,0.4-2.6,0.9-3.5,1.6s-1.6,1.5-2.1,2.4c-0.5,0.9-0.7,2-0.7,3.1c0,1.2,0.2,2.2,0.6,3
			c0.4,0.8,1,1.5,1.9,2.1c0.9,0.6,2,1.1,3.4,1.4s3.1,0.6,5.1,0.8s3.7,0.4,5,0.7c1.3,0.3,2.3,0.6,3,0.9c0.7,0.3,1.2,0.8,1.5,1.3
			s0.4,1,0.4,1.7c0,1-0.2,1.8-0.6,2.4c-0.4,0.7-1,1.2-1.8,1.5c-0.8,0.4-1.7,0.6-2.7,0.8c-1.1,0.1-2.2,0.2-3.5,0.2
			c-1.7,0-3.1-0.1-4.3-0.3c-1.2-0.2-2.1-0.5-2.9-1c-0.8-0.5-1.3-1.3-1.8-2c-0.4-0.7-0.7-1-0.9-3h-3.4c0,4,1.2,5.6,3.5,7.1
			c2.3,1.4,5.6,2.2,9.7,2.2c4.1,0,7.3-0.7,9.3-2.1c2.1-1.5,3.1-3.5,3.1-6.1c0-1.3-0.2-2.3-0.7-3.2C249,162.8,248.3,162,247.4,161.4z
			"/>
	</g>
</g>
<g id="millcreek" display="none">
	<g display="inline">
		<polygon fill="#FFFFFF" points="13.2,135.4 9.8,135.4 3.6,118 3.5,118 3.8,135.4 0,135.4 0,114.6 6.1,114.6 11.5,130 11.6,130 
			16.8,114.6 23.1,114.6 23.1,135.4 19.3,135.4 19.6,117.9 19.5,117.9 13.2,135.4 		"/>
		<polygon fill="#FFFFFF" points="42.5,135.4 38.7,135.4 38.7,114.6 42.5,114.6 42.5,135.4 		"/>
		<polygon fill="#FFFFFF" points="61.9,132 71.1,132 71.1,135.4 58.1,135.4 58.1,114.6 61.9,114.6 61.9,132 		"/>
		<polygon fill="#FFFFFF" points="88.9,132 98.1,132 98.1,135.4 85.1,135.4 85.1,114.6 88.9,114.6 88.9,132 		"/>
		<path fill="#FFFFFF" d="M124.7,135.5c-3.6,0-5.7-2.4-5.7-6.5v-8c0-5.9,3.5-6.5,8.2-6.5h1.8c4.1,0,5.4,1.9,5.4,6v0.7h-2.2v-0.6
			c0-2.9-0.6-4-3.5-4h-1.3c-4.6,0-6.3,0.6-6.3,4.4v5.7c0,4.7,0.2,6.9,3.9,6.9h2.7c3.6,0,4.7-0.5,4.7-3.5v-1.7h2.2v1.9
			c0,4.8-2.9,5.3-6.9,5.3H124.7L124.7,135.5z"/>
		<path fill="#FFFFFF" d="M151.5,135.4h-2.2v-20.8h9.1c4.3,0,6.1,1.2,6.1,6c0,2.9-0.3,5.1-3.5,5.5v0.1c2.2,0.2,3.2,1.5,3.2,3.7v5.5
			H162V131c0-2.6-0.6-3.9-3.3-3.9h-7.2V135.4L151.5,135.4z M158.4,125c3.5-0.1,3.9-1.2,3.9-4.6c0-2.7-0.3-3.7-3.9-3.7h-6.9v8.3
			H158.4L158.4,125z"/>
		<polygon fill="#FFFFFF" points="181.4,123.8 191.4,123.8 191.4,125.7 181.4,125.7 181.4,133.3 191.9,133.3 191.9,135.4 
			179.1,135.4 179.1,114.6 191.9,114.6 191.9,116.7 181.4,116.7 181.4,123.8 		"/>
		<polygon fill="#FFFFFF" points="208.3,123.8 218.3,123.8 218.3,125.7 208.3,125.7 208.3,133.3 218.7,133.3 218.7,135.4 206,135.4 
			206,114.6 218.7,114.6 218.7,116.7 208.3,116.7 208.3,123.8 		"/>
		<polygon fill="#FFFFFF" points="236,123.7 237.9,123.7 246,114.6 248.9,114.6 239.9,124.7 250,135.4 247,135.4 237.9,125.8 
			236,125.8 236,135.4 233.7,135.4 233.7,114.6 236,114.6 236,123.7 		"/>
	</g>
</g>
<g id="ue">
	<g>
		<path fill="#FFFFFF" d="M0,87.9h10.8v22.9c0,3.9,0.2,10.5,10.1,10.5s10.1-6.6,10.1-10.5V87.9h10.9v25.6c0,4.5-0.6,15.4-21,15.4
			c-20.4,0-21-11-21-15.4V87.9L0,87.9z"/>
		<polygon fill="#FFFFFF" points="82.8,87.9 93.3,87.9 93.3,127.9 81.5,127.9 59.7,100 59.6,100 59.6,127.9 49.1,127.9 49.1,87.9 
			61.7,87.9 82.7,115.8 82.8,115.8 82.8,87.9 		"/>
		<polygon fill="#FFFFFF" points="100.9,87.9 111.7,87.9 111.7,127.9 100.9,127.9 100.9,87.9 		"/>
		<polygon fill="#FFFFFF" points="131.4,95.6 116.6,95.6 116.6,87.9 157.1,87.9 157.1,95.6 142.3,95.6 142.3,127.9 131.4,127.9 
			131.4,95.6 		"/>
		<polygon fill="#FFFFFF" points="162,87.9 199.3,87.9 199.3,95.6 172.8,95.6 172.8,103.8 197.9,103.8 197.9,111.1 172.8,111.1 
			172.8,120.3 199.5,120.3 199.5,127.9 162,127.9 162,87.9 		"/>
		<path fill="#FFFFFF" d="M205.5,87.9h24.9c13.7,0,19.6,7.9,19.6,20s-6.2,20-18.7,20h-25.8V87.9L205.5,87.9z M216.3,120.3h12.1
			c7.2,0,10.4-4.3,10.4-12.8c0-7.4-3.1-12-11.4-12h-11.1V120.3L216.3,120.3z"/>
		<polygon fill="#FFFFFF" points="1.2,135 22.2,135 22.2,137.5 3.9,137.5 3.9,146.5 21.5,146.5 21.5,149 3.9,149 3.9,158.9 
			22.4,158.9 22.4,161.4 1.2,161.4 1.2,135 		"/>
		<polygon fill="#FFFFFF" points="64.6,148 54.4,135 58,135 66.6,145.9 75.4,135 78.8,135 68.5,147.9 79.1,161.4 75.5,161.4 
			66.5,150.1 57.4,161.4 53.9,161.4 64.6,148 		"/>
		<path fill="#FFFFFF" d="M137.2,151.3c-0.6,5.9-5.5,10.7-13,10.7c-8.6,0-14-5.4-14-13.8c0-6,3.7-13.8,14-13.8
			c5.8,0,12,2.6,12.8,9.6h-2.7c-0.8-5-5.3-7.1-10.1-7.1c-6.5,0-11.1,3.7-11.1,11.3c0,5.9,3.1,11.3,11.1,11.3c6.3,0,9.4-3.2,10.3-8.2
			H137.2L137.2,151.3z"/>
		<polygon fill="#FFFFFF" points="172.3,135 193.3,135 193.3,137.5 175.1,137.5 175.1,146.5 192.6,146.5 192.6,149 175.1,149 
			175.1,158.9 193.6,158.9 193.6,161.4 172.3,161.4 172.3,135 		"/>
		<polygon fill="#FFFFFF" points="227,135 229.7,135 229.7,158.9 246.4,158.9 246.4,161.4 227,161.4 227,135 		"/>
	</g>
</g>
</svg>
