<?xml version="1.0" encoding="utf-8"?>
<!-- Generator: Adobe Illustrator 18.1.0, SVG Export Plug-In . SVG Version: 6.00 Build 0)  -->
<!DOCTYPE svg PUBLIC "-//W3C//DTD SVG 1.1 Basic//EN" "http://www.w3.org/Graphics/SVG/1.1/DTD/svg11-basic.dtd">
<svg version="1.1" baseProfile="basic" id="Layer_1"
	 xmlns="http://www.w3.org/2000/svg" xmlns:xlink="http://www.w3.org/1999/xlink" x="0px" y="0px" viewBox="0 0 250 16"
	 xml:space="preserve">
<g>
	<path fill="#412020" d="M247.1,6.4h2.7V5.2h-6.8v1.2h2.7v9.7h1.3V6.4z M240.7,16.1h1.3V5.2h-1.3V16.1z M234,16.1h1.3V11h4V9.8h-4
		V6.4h4.3V5.2H234V16.1z M230.2,6.4h2.7V5.2h-6.8v1.2h2.7v9.7h1.3V6.4z M218.9,12.8c0,1.1,0.3,2,0.8,2.6c0.5,0.6,1.3,0.9,2.4,0.9
		c1.1,0,1.9-0.3,2.4-0.9c0.5-0.6,0.8-1.5,0.8-2.5V5.2h-1.3v7.6c0,0.8-0.1,1.3-0.4,1.7s-0.8,0.6-1.5,0.6c-0.7,0-1.1-0.2-1.4-0.6
		c-0.3-0.4-0.4-1-0.4-1.8V5.2h-1.3V12.8z M212.1,5.5c-0.5,0.3-0.8,0.8-1.1,1.3c-0.3,0.5-0.4,1.1-0.5,1.8c-0.1,0.7-0.1,1.4-0.1,2
		c0,0.7,0,1.4,0.1,2c0.1,0.7,0.2,1.3,0.5,1.8c0.3,0.5,0.6,1,1.1,1.3c0.5,0.3,1.1,0.5,1.8,0.5c0.8,0,1.4-0.2,1.8-0.5
		c0.5-0.3,0.8-0.8,1.1-1.3c0.3-0.5,0.4-1.1,0.5-1.8c0.1-0.7,0.1-1.3,0.1-2c0-0.7,0-1.4-0.1-2c-0.1-0.7-0.2-1.3-0.5-1.8
		c-0.3-0.5-0.6-1-1.1-1.3c-0.5-0.3-1.1-0.5-1.8-0.5C213.2,5,212.6,5.1,212.1,5.5 M215,6.4c0.3,0.2,0.5,0.6,0.6,1
		c0.1,0.4,0.2,0.9,0.3,1.4c0,0.6,0.1,1.1,0.1,1.8c0,0.6,0,1.2-0.1,1.8c0,0.6-0.1,1-0.3,1.4c-0.1,0.4-0.4,0.7-0.6,1
		c-0.3,0.2-0.6,0.4-1.1,0.4c-0.5,0-0.8-0.1-1.1-0.4c-0.3-0.2-0.5-0.6-0.6-1c-0.1-0.4-0.2-0.9-0.3-1.4c0-0.6-0.1-1.1-0.1-1.8
		c0-0.6,0-1.2,0.1-1.8c0-0.6,0.1-1,0.3-1.4c0.1-0.4,0.4-0.7,0.6-1c0.3-0.2,0.6-0.4,1.1-0.4C214.4,6.1,214.7,6.2,215,6.4 M203.4,11.9
		c0.1,0.2,0.2,0.3,0.3,0.5c0.1,0.1,0.3,0.2,0.5,0.3c0.2,0.1,0.4,0.1,0.6,0.1c0.2,0,0.4,0,0.6-0.1c0.2-0.1,0.3-0.2,0.5-0.3
		c0.1-0.1,0.2-0.3,0.3-0.5c0.1-0.2,0.1-0.4,0.1-0.6s0-0.4-0.1-0.6c-0.1-0.2-0.2-0.3-0.3-0.5c-0.1-0.1-0.3-0.2-0.5-0.3
		c-0.2-0.1-0.4-0.1-0.6-0.1c-0.2,0-0.4,0-0.6,0.1c-0.2,0.1-0.3,0.2-0.5,0.3c-0.1,0.1-0.2,0.3-0.3,0.5c-0.1,0.2-0.1,0.4-0.1,0.6
		S203.3,11.8,203.4,11.9 M192.9,6.3h1.4c0.6,0,1.1,0.1,1.4,0.4c0.3,0.3,0.6,0.6,0.8,1c0.2,0.4,0.3,0.9,0.3,1.4c0,0.5,0.1,1,0.1,1.6
		c0,0.5,0,1-0.1,1.5c-0.1,0.5-0.2,1-0.3,1.4c-0.2,0.4-0.4,0.8-0.8,1c-0.3,0.3-0.8,0.4-1.4,0.4h-1.4V6.3z M191.6,16.1h3
		c0.7,0,1.3-0.2,1.8-0.5c0.5-0.3,0.9-0.7,1.1-1.2c0.3-0.5,0.5-1.1,0.6-1.7c0.1-0.6,0.2-1.3,0.2-2c0-0.8,0-1.5-0.1-2.1
		c-0.1-0.7-0.3-1.2-0.5-1.7c-0.3-0.5-0.6-0.9-1.1-1.2c-0.5-0.3-1.2-0.4-2-0.4h-2.9V16.1z M184.7,16.1h5.8v-1.2H186V5.2h-1.3V16.1z
		 M181.6,16.1h1.3V5.2h-1.3V16.1z M173.5,12.8c0,1.1,0.3,2,0.8,2.6c0.5,0.6,1.3,0.9,2.4,0.9c1.1,0,1.9-0.3,2.4-0.9
		c0.5-0.6,0.8-1.5,0.8-2.5V5.2h-1.3v7.6c0,0.8-0.1,1.3-0.4,1.7c-0.3,0.4-0.8,0.6-1.5,0.6c-0.7,0-1.1-0.2-1.4-0.6
		c-0.3-0.4-0.4-1-0.4-1.8V5.2h-1.3V12.8z M167.1,10.9h1.6c0.3,0,0.6,0,0.8,0.1c0.3,0.1,0.5,0.2,0.7,0.4c0.2,0.2,0.3,0.4,0.5,0.6
		c0.1,0.3,0.2,0.6,0.2,1c0,0.3,0,0.5-0.1,0.8c-0.1,0.2-0.2,0.5-0.3,0.6c-0.1,0.2-0.3,0.3-0.6,0.4c-0.2,0.1-0.5,0.2-0.9,0.2h-1.8
		V10.9z M165.8,16.1h3c1.1,0,2-0.2,2.6-0.7c0.6-0.5,0.9-1.3,0.9-2.4c0-0.7-0.2-1.2-0.5-1.7c-0.3-0.5-0.8-0.8-1.5-1v0
		c0.2-0.1,0.5-0.2,0.7-0.3c0.2-0.2,0.4-0.3,0.5-0.5c0.1-0.2,0.2-0.4,0.3-0.7s0.1-0.5,0.1-0.7c0-0.5-0.1-1-0.2-1.3
		c-0.2-0.4-0.4-0.6-0.6-0.9c-0.3-0.2-0.6-0.4-0.9-0.5c-0.3-0.1-0.7-0.1-1-0.1h-3.3V16.1z M167.1,6.3h1.5c0.7,0,1.1,0.2,1.4,0.5
		c0.3,0.3,0.4,0.7,0.4,1.3c0,0.4-0.1,0.7-0.2,1c-0.1,0.2-0.3,0.4-0.5,0.5c-0.2,0.1-0.4,0.2-0.6,0.2c-0.2,0-0.4,0-0.5,0h-1.5V6.3z
		 M158.6,11.9c0.1,0.2,0.2,0.3,0.3,0.5c0.1,0.1,0.3,0.2,0.5,0.3c0.2,0.1,0.4,0.1,0.6,0.1s0.4,0,0.6-0.1c0.2-0.1,0.3-0.2,0.5-0.3
		c0.1-0.1,0.2-0.3,0.3-0.5c0.1-0.2,0.1-0.4,0.1-0.6s0-0.4-0.1-0.6c-0.1-0.2-0.2-0.3-0.3-0.5c-0.1-0.1-0.3-0.2-0.5-0.3
		c-0.2-0.1-0.4-0.1-0.6-0.1s-0.4,0-0.6,0.1c-0.2,0.1-0.3,0.2-0.5,0.3c-0.1,0.1-0.2,0.3-0.3,0.5c-0.1,0.2-0.1,0.4-0.1,0.6
		S158.5,11.8,158.6,11.9 M146.6,16.1h1.3V7.3h0l3.5,8.8h1.8V5.2H152v9.1h0l-3.6-9.1h-1.7V16.1z M145,8.2c0-0.1,0-0.2,0-0.4
		c0-0.2-0.1-0.4-0.1-0.7c-0.1-0.2-0.2-0.5-0.3-0.7c-0.1-0.3-0.3-0.5-0.6-0.7c-0.2-0.2-0.5-0.4-0.9-0.5c-0.4-0.1-0.8-0.2-1.3-0.2
		c-0.8,0-1.4,0.2-1.8,0.5c-0.5,0.3-0.8,0.8-1.1,1.3c-0.3,0.5-0.4,1.1-0.5,1.8c-0.1,0.7-0.1,1.4-0.1,2c0,0.7,0,1.4,0.1,2.1
		c0.1,0.7,0.2,1.3,0.5,1.8c0.2,0.5,0.6,0.9,1,1.3c0.4,0.3,1,0.5,1.7,0.5c0.6,0,1.1-0.2,1.5-0.5c0.4-0.3,0.7-0.7,0.8-1.2h0v1.5h1
		v-5.6h-3.4v1.1h2.1c0,0.4,0,0.8-0.1,1.2c0,0.4-0.1,0.8-0.3,1.2c-0.1,0.4-0.3,0.7-0.6,0.9c-0.3,0.2-0.6,0.4-1.1,0.4
		c-0.5,0-0.8-0.1-1.1-0.4c-0.3-0.2-0.5-0.6-0.6-1s-0.2-0.9-0.3-1.4c0-0.6-0.1-1.1-0.1-1.8c0-0.6,0-1.2,0.1-1.8c0-0.6,0.1-1,0.3-1.4
		s0.4-0.7,0.6-1c0.3-0.2,0.6-0.4,1.1-0.4c0.3,0,0.6,0.1,0.8,0.2c0.2,0.1,0.4,0.3,0.5,0.5c0.1,0.2,0.2,0.4,0.3,0.7
		c0.1,0.3,0.1,0.5,0.1,0.8H145z M135.3,16.1h1.3V5.2h-1.3V16.1z M133.7,8c0-1-0.3-1.8-0.8-2.3c-0.5-0.5-1.2-0.8-2.3-0.8
		c-0.7,0-1.2,0.1-1.7,0.3c-0.4,0.2-0.7,0.5-1,0.8c-0.2,0.3-0.4,0.6-0.4,1c-0.1,0.3-0.1,0.6-0.1,0.9c0,0.5,0.1,0.9,0.2,1.2
		c0.1,0.3,0.3,0.6,0.6,0.8c0.2,0.2,0.5,0.4,0.8,0.5c0.3,0.1,0.6,0.3,0.9,0.4c0.3,0.1,0.6,0.2,0.9,0.3c0.3,0.1,0.6,0.2,0.8,0.4
		c0.2,0.2,0.4,0.4,0.6,0.6c0.1,0.2,0.2,0.6,0.2,0.9c0,0.3,0,0.6-0.1,0.8c-0.1,0.2-0.2,0.4-0.4,0.6c-0.2,0.2-0.4,0.3-0.6,0.4
		c-0.2,0.1-0.5,0.1-0.7,0.1c-0.5,0-0.9-0.1-1.1-0.2c-0.3-0.1-0.5-0.3-0.6-0.6c-0.1-0.2-0.2-0.5-0.2-0.8c0-0.3,0-0.6,0-0.9h-1.3
		c0,0.6,0.1,1.1,0.2,1.5c0.1,0.5,0.3,0.8,0.5,1.1c0.2,0.3,0.6,0.5,1,0.7c0.4,0.2,1,0.2,1.6,0.2c0.4,0,0.8-0.1,1.2-0.2
		c0.4-0.1,0.8-0.3,1.1-0.5c0.3-0.2,0.6-0.6,0.8-1c0.2-0.4,0.3-0.9,0.3-1.6c0-0.7-0.1-1.2-0.4-1.6c-0.3-0.4-0.6-0.7-1-0.9
		c-0.4-0.2-0.8-0.4-1.2-0.5c-0.4-0.1-0.9-0.3-1.2-0.4c-0.4-0.2-0.7-0.4-1-0.7c-0.3-0.3-0.4-0.7-0.4-1.2c0-0.6,0.2-1,0.5-1.3
		c0.3-0.3,0.8-0.4,1.3-0.4c0.3,0,0.6,0,0.8,0.1c0.2,0.1,0.4,0.2,0.5,0.4c0.1,0.2,0.2,0.4,0.3,0.6c0.1,0.2,0.1,0.5,0.1,0.8H133.7z
		 M120.7,16.1h5.8v-1.2H122V11h4V9.8h-4V6.4h4.3V5.2h-5.6V16.1z M113.7,6.3h1.4c0.6,0,1.1,0.1,1.4,0.4c0.3,0.3,0.6,0.6,0.8,1
		c0.2,0.4,0.3,0.9,0.3,1.4c0,0.5,0.1,1,0.1,1.6c0,0.5,0,1-0.1,1.5c-0.1,0.5-0.2,1-0.3,1.4c-0.2,0.4-0.4,0.8-0.8,1
		c-0.3,0.3-0.8,0.4-1.4,0.4h-1.4V6.3z M112.4,16.1h3c0.7,0,1.3-0.2,1.8-0.5c0.5-0.3,0.9-0.7,1.1-1.2c0.3-0.5,0.5-1.1,0.6-1.7
		c0.1-0.6,0.2-1.3,0.2-2c0-0.8,0-1.5-0.1-2.1c-0.1-0.7-0.3-1.2-0.5-1.7c-0.3-0.5-0.6-0.9-1.1-1.2c-0.5-0.3-1.2-0.4-2-0.4h-2.9V16.1z
		 M91.9,1.9h2c0.9,0,1.6,0.2,2.1,0.6c0.5,0.4,0.9,0.9,1.1,1.5c0.2,0.6,0.4,1.3,0.5,2c0.1,0.8,0.1,1.5,0.1,2.3c0,0.7,0,1.4-0.1,2.2
		c-0.1,0.7-0.2,1.4-0.5,2c-0.3,0.6-0.6,1.1-1.1,1.5c-0.5,0.4-1.2,0.6-2,0.6h-2V1.9z M90,16.1h4.4c1.1,0,2-0.2,2.6-0.7
		c0.7-0.4,1.2-1,1.6-1.8c0.4-0.7,0.7-1.6,0.8-2.5c0.1-0.9,0.2-1.9,0.2-2.9c0-1.1-0.1-2.1-0.2-3.1c-0.1-1-0.4-1.8-0.8-2.5
		c-0.4-0.7-0.9-1.3-1.7-1.7c-0.7-0.4-1.7-0.6-2.9-0.6H90V16.1z M79.5,16.1H88v-1.7h-6.5V8.7h5.8V7h-5.8V2h6.2V0.3h-8.1V16.1z
		 M74.1,2h4V0.3h-9.9V2h4v14h1.9V2z M58.9,16.1h2l1.2-4.3h5l1.1,4.3h2L66.1,0.3h-2.6L58.9,16.1z M64.7,2.5L64.7,2.5l2.1,7.6h-4.2
		L64.7,2.5z M48.9,16.1h1.9V9h2.6c0.3,0,0.5,0,0.8,0.1c0.3,0,0.5,0.1,0.7,0.3c0.2,0.2,0.4,0.4,0.6,0.7c0.2,0.3,0.3,0.7,0.3,1.3
		l0.1,2.4c0,0.2,0,0.4,0.1,0.6c0,0.2,0.1,0.5,0.1,0.7c0,0.2,0.1,0.4,0.2,0.6c0.1,0.2,0.1,0.3,0.2,0.4h2.3c-0.1-0.1-0.2-0.2-0.3-0.3
		c-0.1-0.1-0.2-0.2-0.2-0.4c-0.1-0.2-0.1-0.4-0.2-0.7C58.1,14.4,58,14,58,13.6l-0.1-2.7c0-0.7-0.3-1.3-0.6-1.8
		c-0.4-0.5-0.9-0.8-1.6-0.9v0c0.5-0.1,0.8-0.3,1.1-0.6c0.3-0.3,0.6-0.6,0.8-0.9c0.2-0.4,0.3-0.8,0.4-1.2c0.1-0.4,0.1-0.9,0.1-1.3
		C58.1,3,57.7,2,57,1.3c-0.7-0.7-1.7-1-3-1h-5.1V16.1z M50.9,1.9h2.3c0.9,0,1.6,0.2,2.1,0.7C55.8,3,56,3.6,56,4.4
		c0,0.8-0.1,1.4-0.3,1.8c-0.2,0.4-0.5,0.7-0.8,0.9c-0.3,0.2-0.7,0.3-1.1,0.3c-0.4,0-0.7,0-1,0h-1.9V1.9z M46.6,4.7
		c0-0.1,0-0.3,0-0.6c0-0.3-0.1-0.6-0.2-0.9C46.3,2.8,46.1,2.4,46,2c-0.2-0.4-0.5-0.7-0.8-1c-0.3-0.3-0.8-0.5-1.3-0.7
		C43.3,0.1,42.7,0,41.9,0c-1.1,0-2,0.2-2.6,0.7s-1.2,1.1-1.5,1.9c-0.4,0.8-0.6,1.7-0.7,2.6c-0.1,1-0.2,2-0.2,2.9
		c0,1.1,0.1,2.1,0.2,3.1c0.1,1,0.3,1.9,0.7,2.6c0.3,0.8,0.8,1.4,1.5,1.8c0.6,0.5,1.5,0.7,2.5,0.7c0.9,0,1.6-0.2,2.2-0.7
		c0.6-0.5,1-1.1,1.2-1.7h0v2.1h1.5V7.9h-4.9v1.6h3.1c0,0.5,0,1.1-0.1,1.7c-0.1,0.6-0.2,1.2-0.4,1.7c-0.2,0.5-0.5,1-0.9,1.3
		c-0.4,0.4-0.9,0.5-1.6,0.5c-0.7,0-1.2-0.2-1.6-0.5c-0.4-0.3-0.7-0.8-0.9-1.4c-0.2-0.6-0.4-1.3-0.4-2.1c-0.1-0.8-0.1-1.7-0.1-2.6
		c0-0.9,0-1.8,0.1-2.6c0.1-0.8,0.2-1.5,0.4-2.1c0.2-0.6,0.5-1.1,0.9-1.4c0.4-0.3,0.9-0.5,1.6-0.5c0.5,0,0.9,0.1,1.2,0.3
		c0.3,0.2,0.6,0.4,0.8,0.7c0.2,0.3,0.3,0.6,0.4,1s0.2,0.8,0.2,1.2H46.6z M26.9,16.1h8.4v-1.7h-6.5V8.7h5.8V7h-5.8V2H35V0.3h-8.1
		V16.1z M21.4,2h4V0.3h-9.9V2h4v14h1.9V2z M4.4,16.1h1.9V3.3h0l5.1,12.8h2.7V0.3h-1.9v13.2h0L6.9,0.3H4.4V16.1z M-0.1,16.1h1.9V0.3
		h-1.9V16.1z"/>
</g>
</svg>
