<?xml version="1.0" encoding="utf-8"?>
<!-- Generator: Adobe Illustrator 18.1.0, SVG Export Plug-In . SVG Version: 6.00 Build 0)  -->
<!DOCTYPE svg PUBLIC "-//W3C//DTD SVG 1.1 Basic//EN" "http://www.w3.org/Graphics/SVG/1.1/DTD/svg11-basic.dtd">
<svg version="1.1" baseProfile="basic" id="Layer_1"
	 xmlns="http://www.w3.org/2000/svg" xmlns:xlink="http://www.w3.org/1999/xlink" x="0px" y="0px" viewBox="0 0 240 250"
	 xml:space="preserve">
<g>
	<polygon fill="#802528" points="0.8,158.6 120.5,125.1 0.8,91.5 	"/>
	<path fill="#FFFFFF" d="M0,159.6V90.5l123.4,34.5L0,159.6z M1.6,92.6v65l116-32.5L1.6,92.6z"/>
</g>
<g>
	<polygon fill="#BB9D13" points="43.4,222.4 120.5,125.1 3.9,168.1 	"/>
	<path fill="#FFFFFF" d="M43.4,223.7L2.6,167.7l120.2-44.4L43.4,223.7z M5.1,168.5l38.3,52.6l74.7-94.3L5.1,168.5z"/>
</g>
<g>
	<polygon fill="#BB9D13" points="51.5,228.3 115.4,249 120.5,125.1 	"/>
	<path fill="#FFFFFF" d="M116.2,250.1l-65.9-21.4l71.1-106.4L116.2,250.1z M52.7,227.8l61.9,20.1l4.9-120.1L52.7,227.8z"/>
</g>
<g>
	<polygon fill="#412020" points="125.5,249 189.4,228.3 120.5,125.1 	"/>
	<path fill="#FFFFFF" d="M124.7,250.1l-5.2-127.8l71,106.4L124.7,250.1z M121.4,127.8l4.9,120.1l61.9-20.1L121.4,127.8z"/>
</g>
<g>
	<polygon fill="#412020" points="237.1,168.2 120.5,125.1 197.5,222.4 	"/>
	<path fill="#FFFFFF" d="M197.6,223.7l-79.4-100.3l120.2,44.4L197.6,223.7z M122.8,126.8l74.7,94.3l38.3-52.6L122.8,126.8z"/>
</g>
<g>
	<polygon fill="#A22A2E" points="120.5,125.1 239.2,159.6 239.2,92.6 	"/>
	<path fill="#FFFFFF" d="M240,160.7L117.6,125L240,91.5L240,160.7z M123.4,125.1l115,33.5l0-65L123.4,125.1z"/>
</g>
<g>
	<polygon fill="#A22A2E" points="196.6,28.8 120.5,125.1 236.1,83 	"/>
	<path fill="#FFFFFF" d="M118.2,126.7l78.5-99.3l40.7,55.9L118.2,126.7z M196.6,30.1l-73.8,93.3l112.1-40.7L196.6,30.1z"/>
</g>
<g>
	<polygon fill="#B4A87D" points="125.6,1.1 120.5,125.1 189.5,21.9 	"/>
	<path fill="#FFFFFF" d="M119.6,127.8l5.3-127.8l65.9,21.4L119.6,127.8z M126.3,2.2l-4.9,120.1l66.9-100L126.3,2.2z"/>
</g>
<g>
	<polygon fill="#B4A87D" points="51.6,21.8 120.5,125.1 115.5,1.1 	"/>
	<path fill="#FFFFFF" d="M121.4,127.8l-71-106.4l65.9-21.3L121.4,127.8z M52.8,22.2l66.8,100.1L114.8,2.2L52.8,22.2z"/>
</g>
<g>
	<polygon fill="#802528" points="3.9,81.9 120.5,125.1 43.5,27.7 	"/>
	<path fill="#FFFFFF" d="M122.8,126.8L2.7,82.3l40.8-55.9L122.8,126.8z M5.2,81.5l113,41.8L43.5,29L5.2,81.5z"/>
</g>
</svg>
